<?xml version="1.0" standalone="no"?>
<!DOCTYPE svg PUBLIC "-//W3C//DTD SVG 20010904//EN"
 "http://www.w3.org/TR/2001/REC-SVG-20010904/DTD/svg10.dtd">
<svg version="1.0" xmlns="http://www.w3.org/2000/svg"
 width="230.000000pt" height="230.000000pt" viewBox="0 0 230.000000 230.000000"
 preserveAspectRatio="xMidYMid meet">

<g transform="translate(0.000000,230.000000) scale(0.100000,-0.100000)"
fill="#000000" stroke="none">
<path d="M900 1953 c58 -2 115 -5 126 -8 20 -4 37 -33 47 -80 3 -11 5 -3 6 18
2 75 -3 77 -152 75 -129 -2 -130 -2 -27 -5z"/>
<path d="M517 1724 c-4 -59 -7 -216 -7 -349 l0 -241 30 -22 c16 -12 33 -22 38
-22 5 0 39 82 77 183 101 270 99 267 133 267 60 0 66 -43 26 -208 -36 -151
-52 -242 -63 -356 -14 -142 -4 -149 55 -36 43 83 92 130 135 130 44 0 52 32
45 168 -5 100 -4 118 14 160 19 43 20 65 18 237 l-3 190 -246 3 -246 2 -6
-106z"/>
<path d="M1504 1045 c-19 -19 -32 -40 -28 -46 4 -6 1 -15 -6 -19 -9 -6 -3 -18
24 -45 31 -31 42 -36 74 -33 24 2 38 8 40 19 2 13 -5 16 -34 15 -21 -1 -39 4
-41 12 -3 7 5 12 21 12 13 0 28 5 31 10 4 6 -8 10 -29 10 -20 0 -36 5 -36 10
0 6 18 10 40 10 22 0 40 5 40 10 0 6 -16 10 -36 10 -32 0 -35 2 -23 16 8 10
23 14 41 12 22 -4 28 -1 28 14 0 14 -8 18 -35 18 -27 0 -44 -8 -71 -35z"/>
</g>
</svg>
