<?xml version="1.0" standalone="no"?>
<!DOCTYPE svg PUBLIC "-//W3C//DTD SVG 20010904//EN"
 "http://www.w3.org/TR/2001/REC-SVG-20010904/DTD/svg10.dtd">
<svg version="1.0" xmlns="http://www.w3.org/2000/svg"
 width="512.000000pt" height="512.000000pt" viewBox="0 0 512.000000 512.000000"
 preserveAspectRatio="xMidYMid meet">

<g transform="translate(0.000000,512.000000) scale(0.100000,-0.100000)"
fill="#000000" stroke="none">
<path d="M3307 4704 c-334 -222 -508 -344 -516 -360 -16 -37 -14 -209 3 -243
18 -33 54 -51 106 -51 l40 0 0 -465 0 -465 -40 0 c-52 0 -88 -18 -106 -51 -27
-52 -8 -115 41 -137 38 -17 1972 -17 2010 0 29 13 55 55 55 88 0 59 -49 100
-120 100 l-40 0 0 465 0 465 40 0 c52 0 93 21 108 55 15 33 16 206 1 239 -17
37 -1010 696 -1049 696 -22 0 -157 -85 -533 -336z m961 -169 l427 -285 -855 0
-855 0 425 284 c234 157 426 285 428 285 1 1 194 -127 430 -284z m-1008 -955
l0 -460 -60 0 -60 0 0 460 0 460 60 0 60 0 0 -460z m960 0 l0 -460 -380 0
-380 0 0 460 0 460 380 0 380 0 0 -460z m320 0 l0 -460 -60 0 -60 0 0 460 0
460 60 0 60 0 0 -460z"/>
<path d="M1838 4601 c-27 -24 -33 -36 -32 -70 2 -56 21 -74 138 -133 l98 -49
-94 -33 c-469 -164 -857 -512 -1069 -961 -60 -128 -121 -308 -123 -363 -1 -37
4 -48 32 -73 22 -20 43 -29 66 -29 53 0 83 31 106 113 36 121 70 207 132 328
156 305 433 572 748 723 117 55 276 113 286 103 3 -3 -22 -57 -55 -120 -72
-135 -78 -172 -32 -218 40 -39 92 -40 130 -1 41 41 261 463 261 500 0 18 -9
41 -22 56 -34 36 -468 256 -506 256 -21 0 -43 -10 -64 -29z"/>
<path d="M2671 2786 c-67 -37 -65 -143 4 -174 20 -9 303 -12 1166 -12 967 0
1144 2 1168 14 66 35 66 137 0 172 -40 20 -2301 21 -2338 0z"/>
<path d="M747 2164 c-334 -222 -508 -344 -516 -360 -16 -37 -14 -209 3 -243
18 -33 54 -51 106 -51 l40 0 0 -465 0 -465 -40 0 c-52 0 -88 -18 -106 -51 -27
-52 -8 -115 41 -137 38 -17 1972 -17 2010 0 29 13 55 55 55 88 0 59 -49 100
-120 100 l-40 0 0 465 0 465 40 0 c52 0 93 21 108 55 15 33 16 206 1 239 -17
37 -1010 696 -1049 696 -22 0 -157 -85 -533 -336z m961 -169 l427 -285 -855 0
-855 0 425 284 c234 157 426 285 428 285 1 1 194 -127 430 -284z m-1008 -955
l0 -460 -60 0 -60 0 0 460 0 460 60 0 60 0 0 -460z m960 0 l0 -460 -380 0
-380 0 0 460 0 460 380 0 380 0 0 -460z m320 0 l0 -460 -60 0 -60 0 0 460 0
460 60 0 60 0 0 -460z"/>
<path d="M4207 2210 c-18 -15 -35 -53 -66 -151 -137 -429 -439 -783 -836 -979
-134 -66 -300 -128 -311 -117 -3 3 22 57 55 120 69 130 76 168 37 214 -20 23
-32 28 -71 28 -38 0 -51 -5 -69 -26 -40 -47 -256 -464 -256 -495 0 -16 7 -39
15 -51 22 -31 475 -263 514 -263 20 0 42 10 62 28 26 23 32 36 32 70 0 57 -18
74 -137 134 l-98 49 93 33 c471 164 857 512 1070 961 60 128 121 308 123 363
1 37 -4 48 -32 73 -39 35 -87 38 -125 9z"/>
<path d="M111 246 c-67 -37 -65 -143 4 -174 20 -9 303 -12 1166 -12 967 0
1144 2 1168 14 66 35 66 137 0 172 -40 20 -2301 21 -2338 0z"/>
</g>
</svg>
